<?xml version="1.0" encoding="UTF-8"?>
<svg id="Layer_1" data-name="Layer 1"
  xmlns="http://www.w3.org/2000/svg" viewBox="0 0 1016 1016">
  <defs>
    <style>
      .cls-1 {
        fill: #f6c700;
      }

      .cls-2 {
        fill: #252623;
      }

      .cls-3 {
        fill: #fcfdfa;
      }

      .cls-4 {
        fill: #282827;
      }

      .cls-5 {
        fill: #143582;
      }

      .cls-6 {
        fill: #edb600;
      }

      .cls-7 {
        fill: #ff0049;
      }

      .cls-8 {
        fill: #0b0c09;
      }

      .cls-9 {
        fill: #3354a2;
      }
    </style>
  </defs>
  <g>
    <path class="cls-7" d="M190.49,904.57c86.97,69.72,197.37,111.43,317.51,111.43s225.37-39.79,311.37-106.6c-87.61,59.62-194.97,94.72-310.95,94.72s-229.07-37-317.93-99.55Z"/>
    <path class="cls-9" d="M1016,508C1016,227.44,788.56,0,508,0S0,227.44,0,508c0,160.42,74.36,303.47,190.49,396.57,88.86,62.55,198.85,99.55,317.93,99.55s223.34-35.1,310.95-94.72c119.64-92.94,196.63-238.18,196.63-401.4Z"/>
  </g>
  <path class="cls-7" d="M508,0C382,0,266.71,45.88,177.93,121.84,267.31,48.15,382.4,3.78,508,3.78s240.7,44.36,330.07,118.06C749.29,45.88,634.01,0,508,0Z"/>
  <g>
    <path class="cls-3" d="M995.71,434.88c-32.44-222.64-238.24-394.28-487.29-394.28S62.78,204.66,23.57,420.05c79.74-62.33,271.8-102.11,496.07-102.11,207.3,0,387.08,51.87,476.07,116.94Z"/>
    <g>
      <path class="cls-5" d="M510.31,318.46v-1c3.1-.02,6.21-.03,9.33-.03v1c-3.11,0-6.22.01-9.33.03Z"/>
      <path class="cls-5" d="M489.24,318.69h0l-.02-1c1.63-.03,3.26-.05,4.89-.07,1.49-.02,2.99-.04,4.48-.06h0s0,0,0,0v1c-1.49.02-3,.04-4.5.06-1.62.02-3.24.05-4.86.07h0Z"/>
      <path class="cls-5" d="M498.74,318.55v-1c3.08-.03,6.18-.06,9.28-.08h.02s0,0,0,0v1c-3.1.02-6.2.04-9.3.08Z"/>
      <path class="cls-6" d="M487.55,318.21c.56,0,1.12-.02,1.68-.03-.56,0-1.12.02-1.68.03Z"/>
      <path class="cls-6" d="M498.61,318.06s.08,0,.13,0c-.04,0-.08,0-.13,0Z"/>
      <path class="cls-6" d="M508.04,317.98c.75,0,1.51,0,2.27-.01-.76,0-1.51,0-2.27.01Z"/>
      <path class="cls-3" d="M21.62,561.2c33.91,221.11,238.93,391.14,486.81,391.14,231.66,0,425.9-148.51,478-348.43,2.08-7.97,3.92-16.03,5.54-24.16-89.53,55.75-267.49,92.77-472.93,92.77-216.89,0-409.91-47.17-497.43-111.31Z"/>
      <path class="cls-1" d="M995.71,434.88c-88.99-65.07-268.77-116.94-476.07-116.94-3.12,0-6.23.01-9.33.03-.76,0-1.51,0-2.27.01-3.11.02-6.21.04-9.31.08-.04,0-.08,0-.13,0-3.13.04-6.26.08-9.38.13-.56,0-1.12.02-1.68.03-210.37,3.6-388.08,42.49-463.98,101.83-4.52,24.85-6.89,50.38-6.89,76.42,0,18.89,1.25,37.5,3.65,55.79.39,2.99.83,5.97,1.28,8.95,87.51,64.15,280.54,111.31,497.43,111.31,205.44,0,383.4-37.02,472.93-92.77,5.38-27,8.2-54.83,8.2-83.28,0-20.89-1.52-41.45-4.46-61.59Z"/>
    </g>
  </g>
  <path class="cls-5" d="M597.4,448.69h-47.54l-50.4,117.5-2.2-2.72-46.47-55.36,56.97-59.45h-47.46l-49.92,53.85v-53.83l-40.2.02v128.41l40.2-.02v-57.27l45.62,57.29h83.12l8.43-21.94h49.61l8.43,21.94h43.19l-51.36-128.41ZM557.51,530.3l15.88-44.33,15.88,44.33h-31.77Z"/>
  <path class="cls-5" d="M852.98,574.86h29.35l-33.37-123.99h-37.79l-43.02,123.99h32.72l6.26-21.18h39.58l6.26,21.18ZM817.43,531.09l12.35-45.13,12.35,45.13h-24.69Z"/>
  <polygon class="cls-5" points="350.41 577.1 350.41 512.88 350.41 448.65 332.06 448.65 310.84 448.65 310.84 512.88 310.84 577.1 332.06 577.1 350.41 577.1"/>
  <path class="cls-5" d="M684.17,526.67c-13.36-1.03-21.04-1.75-28.53-9.77-4.86-5.23-9.11-13.97-9.11-30.1s3.67-24.83,10.12-31.06c10.3-9.94,30.27-9.7,51.37-9.7,32.38,0,42.2,3.06,51.58,16.13,3.39,4.71,6.27,15.58,6.82,27.41h-35.74c.7-11.35-11.62-11.97-25.01-11.97-9.72,0-26.79-.69-27.37,9.63-.64,10.73,11.37,9.87,20.64,10.35,0,0,19.69.89,34.15,1.62,15.41.79,20.67,5.09,25.04,9.94,6.7,7.43,8.16,20.4,8.16,30.68,0,35.77-20.64,40.07-56.11,40.07s-43.63-3.13-51.92-11.18c-5.84-5.68-10.82-15.89-10.82-32.47h34.7c-.7,11.35,13.97,11.97,27.34,11.97,9.72,0,23.85.83,25.04-9.6,1.25-10.66-9.05-9.91-18.32-10.39.03.07-17.58-.48-32.04-1.58"/>
  <polyline class="cls-5" points="324.3 381.74 293.39 381.74 315.86 400.46 305.65 433.09 330.63 413.49 356.79 434.04 346.93 400.45 371.15 381.74 341.45 381.74 335.77 350.33"/>
  <path class="cls-5" d="M161.07,574.86h-31.32s12.51-106.92,28.33-153.01h31.57l16.28,65.82,19.46-65.82h35.06l38.55,155.25h-39.4l-19.13-79.62-17.98,79.62h-28l-22.38-78.75s-8.23,42.66-11.04,76.51Z"/>
  <path class="cls-2" d="M696.59,852.77c-130.72,1.97-261.58-1.15-392.14-7.84,130.72-1.46,261.6.65,392.14,7.84h0Z"/>
  <g>
    <g>
      <path class="cls-4" d="M719.77,161.52c-3.9-2.95-8.4-4.99-13.14-6.19l-53.55-13.58s-5.29,13.88-6.11,16.18c-.02.06-11.84,33.97-12.47,35.84-.24.72-.48,1.44-.72,2.16-.96,2.89-1.9,5.79-2.83,8.67,0,0,0,0,0,0,10.79,1.65,21.43,3.49,31.89,5.49.59-1.83,1.19-3.66,1.8-5.5.63-1.92,1.27-3.84,1.92-5.76.24-.72.48-1.43.72-2.14.37-1.1.75-2.21,1.12-3.3.73-2.14,1.46-4.27,2.18-6.36,4.55.83,21.28,4.19,30.86,6.12,6.19,1.25,24.28,1.67,26.72-13.81,1.14-5.31-.29-11.7-8.38-17.83ZM695.23,174.98c-.93,2.59-3.57,4.16-6.29,3.72-4.12-.66-10.01-1.98-14.48-2.77.96-2.72,3.79-10.81,3.79-10.81l13.32,3.13c2.99.7,4.7,3.84,3.67,6.73Z"/>
      <path class="cls-4" d="M403.6,200.89l-.24-2.24-.4-3.67-.24-2.2-.91-8.35-.41-3.73-.2-1.81-.3-2.7-.43-3.93-1.24-11.31-.59-5.38-.02-.15-.59-5.37-1.42-12.96c-4.8.59-9.56,1.21-14.26,1.86-5.77.8-18.86,3.68-18.86,3.68l-55.55,76.16c8.56-2.07,16.25-3.29,25.5-5.19l4.41-6.73,1.63-2.49,2.58-3.95c8.93-1.02,18.09-1.96,27.46-2.81l.4,3.63.25,2.25.37,3.4c10.69-1.67,21.77-3.18,33.21-4.49l-.17-1.53ZM352.04,186.39l1.54-2.35,12.46-17.4,1.94,17.74s-12.62,1.63-15.93,2Z"/>
      <path class="cls-4" d="M285.68,160.82c-9.9,2.91-25.34,8.52-26.84,9.19-.12.06-24.18,66.28-25.87,71.67,8.64-3.13,18-6.32,28.07-9.47,12.25-3.83,25.54-7.62,39.86-11.2,1-3.09,6.66-20.07,6.98-21.02-9.48,2.22-39.56,10.01-39.56,10.01l3.65-10.79,20.19-5.91,3.09-10.05-19.55,5.48s.65-2.11.94-2.94c.64-1.8,1.94-5.47,1.94-5.47,0,0,25.92-7.56,39.99-10.85.04-.11.08-.22.12-.32,1.28-3.55,2.61-7.17,3.97-10.86.93-2.51,1.87-5.06,2.84-7.63-13.96,3.06-27.27,6.46-39.83,10.16Z"/>
      <path class="cls-4" d="M573.25,132.09l-.59,1.58-4.77,12.81-1.39,3.74-.02.06-2.16,5.79c-7.23-.39-14.54-.69-21.91-.92l2.16-5.8v-.04s1.28-3.4,1.28-3.4l4.96-13.3.59-1.59c-10.42-.4-20.97-.64-31.63-.71l-.6,1.61-5.11,13.72-1.2,3.22h0s-2.17,5.81-2.17,5.81l-3.88,10.4-1.22,3.27-.73,1.97-1.07,2.87-1.37,3.68-.87,2.34-3.76,10.09-.83,2.22-1.4,3.76c.36,0,.72,0,1.08-.01,4.72-.04,9.46-.06,14.22-.06,5.53,0,11.05.07,16.56.19l1.44-3.86.82-2.21,3.62-9.71.98-2.63,1.29-3.45,1.07-2.87c7.38.2,14.7.48,21.94.83l-1.07,2.88-1.15,3.07-1.14,3.05-3.43,9.21-.82,2.2-1.61,4.32c11.28.58,22.5,1.41,33.63,2.46l2.02-5.65.78-2.18,2.88-8.07,1.44-4.02.77-2.16,1.03-2.88,1.18-3.31,4.29-11.99,2.07-5.78.04-.11,1.64-4.58,4.2-11.74.56-1.56c-10.68-1.02-21.57-1.87-32.63-2.54Z"/>
      <path class="cls-4" d="M498.89,148.08c-.41-5.71-3.34-11.01-8.12-14.15-.03-.02-.06-.04-.09-.06-5.52-4.28-20.77-7.73-37.28-3.96-23.75,5.87-35,22.61-35.53,23.43-.01.02-.03.04-.04.06-.02.02-2.39,3.93-3.37,5.91-.48.96-1.03,2.51-1.6,4.3-1.33,4.2-1.74,8.58-1.24,12.84,2.86,21.15,22.67,23.18,30.91,23.46,7.72.27,15.24-.65,19.96-1.84.66-.17,1.33-.33,1.99-.52,1.78-.51,3.54-1.15,5.27-1.89,2.46-1.06,4.86-2.36,7.17-3.89,1.07-.71,2.12-1.47,3.15-2.28.14,0,.28,0,.42,0,.36-.39.71-.8,1.06-1.2,3.04-2.58,5.85-5.59,8.31-9.02.44-.62.88-1.25,1.3-1.89.1-.15.18-.29.27-.44.78-1.21,1.5-2.45,2.16-3.69.5-.95.96-1.91,1.4-2.87.15-.33.29-.66.44-.99-.33-.49-.34-.5-.67-.99-9.33.1-18.56.28-27.69.53-.16.26-.31.53-.49.79-.34.51-.68,1.01-1.04,1.49-.76,1.05-1.57,2.02-2.4,2.92-1.26,1.36-2.58,2.55-3.92,3.54-1.65,1.22-3.33,2.14-4.96,2.72-2.25.8-4.39.95-6.22.33-.52-.18-1.02-.39-1.48-.69-.72-.47-1.32-1.09-1.82-1.81-.59-.86-1.04-1.87-1.31-3.01-.2-.86-.32-1.79-.34-2.77-.02-.85.04-1.74.15-2.66.46-3.8,2.05-8.11,4.73-12.21.23-.34.46-.67.7-1,1.64-2.33,3.48-4.34,5.39-5.95.03-.03.06-.06.09-.08,2.42-2.02,4.94-3.39,7.3-4,1.92-.34,3.71-.97,6.53.72.94.61,1.68,1.46,2.24,2.47.01.02.02.03.03.05.73,1.35,1.12,3.02,1.19,4.87,0,.25,0,.51,0,.76,6.98-.27,22.82-.63,23.68-.64,1.33-.02,2.67-.04,4.01-.05,0-.02,0-.05,0-.07.08-.9-.05-3.68-.26-6.57Z"/>
      <path class="cls-4" d="M871.47,230.47c-2.61-4.39-5.99-8.69-10.08-12.63-7.31-7.05-15.11-11.92-22.43-14.23-1.9-.6-3.77-1.03-5.58-1.27-.83-.11-1.64-.18-2.45-.22-5.42-.25-10.32,1.22-14.2,4.6-.41.36-.82.74-1.21,1.14-.09.09-.17.19-.26.29-.15.16-.29.32-.44.48-1.25,1.43-2.29,3.05-3.13,4.8-.03.06-.06.12-.09.18-1.29,2.77-2.07,5.9-2.33,9.22-.06.72-.09,1.45-.1,2.19-.01,1.29.04,2.6.18,3.93.07.72.18,1.44.3,2.17.09.58.2,1.16.33,1.75.76,3.59,2.04,7.24,3.88,10.83,2.37,4.62,5.65,9.11,9.87,13.19,1.74,1.68,3.55,3.22,5.39,4.64.54.41,1.08.81,1.62,1.2,4.29,3.08,8.77,5.44,13.18,7.02,1.41.51,2.8.93,4.19,1.28,1.39.35,2.76.62,4.11.81.45.06.89.12,1.34.16.96.1,1.9.14,2.83.15,10.27-.07,14.74-4.65,16.03-5.99,7.82-8.11,6.96-22.35-.96-35.69ZM853.94,239.44c-.05.48-.11.95-.18,1.42-.1.6-.21,1.18-.36,1.75-.16.63-.34,1.25-.55,1.83-.27.75-.58,1.47-.93,2.13-.44.83-.93,1.57-1.48,2.22-1.56,1.89-3.5,3.03-5.61,3.03-4.26,0-7.84-4.57-8.89-10.77-.21-1.21-.33-2.48-.33-3.79,0-.77.05-1.51.12-2.25.07-.71.16-1.41.29-2.08.15-.77.35-1.51.58-2.22.64-1.99,1.55-3.71,2.67-5.05.13-.16.26-.32.4-.47.05-.05.1-.09.15-.14,1.44-1.48,3.16-2.35,5.02-2.35,4.37,0,8.03,4.82,8.97,11.27.16,1.06.25,2.16.25,3.29,0,.74-.05,1.47-.11,2.18Z"/>
    </g>
    <path class="cls-4" d="M227.95,180.71c-15.05,7.1-38.39,18.22-42.06,20.21-.94,2.6-1.85,5.15-2.75,7.67-.17.48-.34.96-.51,1.44-.29.81-.57,1.61-.86,2.42-.79,2.25-1.57,4.46-2.33,6.64-1.28,3.67-2.52,7.25-3.7,10.73-1.14,3.34-2.24,6.59-3.29,9.74-.21.64-.42,1.26-.63,1.89-.13.4-.27.8-.4,1.2-.18.56-.36,1.1-.55,1.65-.13.39-.26.79-.39,1.18.02.02.05.04.07.06-.05.06-.1.12-.15.19-.29.88-.58,1.76-.86,2.62-.41,1.26-.82,2.5-1.22,3.73-1.57,4.84-5.14,20.28-5.14,20.28,0,0,33.87-16.24,39.39-18.57,13.99-5.9,25.03-17.18,30.63-31.29.27-.67.53-1.33.78-1.97,1.64-4.11-1.29-8.6-5.71-8.77l-1.84-.07c-.67.02-1.22-.52-1.22-1.19,0-.32.13-.62.35-.84l6.61-5.04c5.58-4.26,9.68-10.17,11.72-16.9,4.37-13.47-8.94-10.3-15.94-7ZM208.49,228.48s-.03.09-.04.13c-.98,3.02-3.31,5.4-6.29,6.5-.12.05-.25.09-.37.14-2.77,1.02-8.74,3.42-9.12,3.58.31-.98,2.78-8.56,3.06-9.42,3.14-1.26,6.44-2.5,9.91-3.71,1.74-.61,3.43,1.04,2.86,2.79ZM217.03,206.25s-.02.08-.03.13c-.63,3.09-2.76,5.65-5.68,6.83-4.25,1.72-10.01,4.09-11.81,4.82.26-.76,2.6-7.65,3.35-9.83,3.32-1.28,7.29-3.03,11.17-4.51,1.66-.64,3.37.82,3.01,2.56Z"/>
    <path class="cls-4" d="M805.83,194.06c-3.19-5.41-13.5-11.88-27.56-16.99-3.02-1.1-5.73-2.09-8.24-3-13.64-4.98-20.42-7.45-28.57-9.61-1.13,3.71-16.43,55.88-17.48,59.7,9.64,2.6,19.02,5.32,28.11,8.13,1.4-4.82,6.68-22.36,6.7-22.44.3-1,.61-1.99.91-2.97,5.15,1.82,10.14,3.7,14.96,5.62.21.36.39.74.54,1.15.23.66.38,1.4.41,2.31,0,.09,0,.18,0,.28.02,1.37-.21,3.13-.74,5.5-.12.53-.26,1.1-.41,1.7-.13.5-.26,1.02-.41,1.57-1.3,4.77-1.6,9.79-1.51,13.93,8.83,3.02,17.31,6.12,25.41,9.28.15-4.03.99-7.36,1.84-12.73,0-.02,0-.04,0-.07.42-2.67.65-5.01.62-7.12,0-.24-.01-.47-.02-.71-.06-1.34-.24-2.59-.57-3.78-.17-.62-.38-1.23-.63-1.81-.39-.91-.88-1.79-1.5-2.64-1.26-1.75-3.01-3.41-5.37-5.1-.47-.33-.66-.93-.47-1.47.2-.54.74-.88,1.31-.83,1.88.18,6.16.32,9.68-1.47.5-.26.99-.55,1.46-.89,1.33-.98,2.45-2.32,3.15-4.17.09-.25.18-.51.25-.77.06-.19.11-.39.15-.59.03-.14.06-.28.09-.43.47-2.58.06-5.88-2.12-9.58ZM772.69,201.78c-5.78-2.22-9.77-3.93-9.77-3.93l2.49-8.9s4.44,1.24,8.58,3.11c10.14,4.32,6.85,8.84,6.85,8.84.15-.17-1.54,3.42-8.16.88Z"/>
  </g>
  <g>
    <g>
      <path class="cls-8" d="M361.76,769.3l.11,14.21.02,2.07.03,3.62.07,9.15.11,14.44c6.99,1.66,14.39,3.21,22.15,4.64v-29.61c11.66,1.99,24.07,3.73,37.1,5.2v-15.83c-21.85-2.51-41.92-5.8-59.6-9.71v1.82Z"/>
      <path class="cls-8" d="M361.64,753.72c17.55,4.13,37.67,7.64,59.71,10.34,2.21.27,4.44.53,6.68.79v-17.18c-24.8-2.9-47.29-6.81-66.52-11.49l.14,17.55Z"/>
      <path class="cls-8" d="M436.69,765.77v58.94c8.02.79,16.26,1.47,24.67,2.03v-75.91c-8.43-.63-16.66-1.37-24.67-2.21v17.15Z"/>
      <path class="cls-8" d="M630.2,785.31h0c-.46-.24-.55-.86-.16-1.22l1.05-.96c4.7-4.31,7.26-10.46,7.01-16.83h0c-.41-10.51-9.61-18.52-20.07-17.41-25.82,2.75-54.39,4.31-84.58,4.42l-6.25,16.87-4.62,12.49-.67,1.81-5.12,13.83-.76,2.05-1.34,3.61h-.17s-1.25-3.62-1.25-3.62l-.71-2.06-4.8-13.91-.63-1.82-4.38-12.69-5.91-17.13c-9.25-.32-18.34-.77-27.24-1.35v17.04c2.95.18,5.93.35,8.92.5l5.29,12.98.75,1.84,5.75,14.1.85,2.08,1.49,3.65,4,9.81,6.16,15.09c1.66.03,3.33.06,5,.08,6.22.08,12.38.08,18.47.03l6.18-14.91,4.09-9.87,1.51-3.64.86-2.07,5.78-13.93.76-1.83,5.17-12.47c20.15-.51,40.43-1.79,58.68-3.55,3.41-.33,6.4,2.28,6.53,5.7h0c.16,4.13-2.91,7.67-7.02,8.09-13.68,1.42-28.71,2.59-43.41,3.3v15.81c15.07-.76,29.54-1.89,43.22-3.36,3.72-.4,6.99,2.43,7.14,6.17h0c.15,3.79-2.67,7.05-6.45,7.44-13.91,1.44-28.61,2.55-43.91,3.27v14.62c13.4-.74,25.93-.92,38.19-2.26,2.51-.27,1.29-.05,11.09-1.4,10.43-1.44,23.26-11.22,24.47-21.68h0c.8-6.9-2.76-13.57-8.93-16.75Z"/>
    </g>
    <g>
      <polygon class="cls-8" points="637.98 816.25 640.06 816.25 640.06 822.2 641.71 822.2 641.71 816.25 643.81 816.25 643.81 814.69 637.98 814.69 637.98 816.25"/>
      <polygon class="cls-8" points="652.14 822.2 652.11 814.69 650.77 814.69 648.38 819.22 645.93 814.69 644.58 814.69 644.58 822.2 646.12 822.2 646.12 818.04 647.98 821.42 648.72 821.42 650.58 817.92 650.59 822.2 652.14 822.2"/>
    </g>
  </g>
  <g>
    <path d="M380.19,877.93c0,2.06-.37,3.89-1.11,5.45-.74,1.56-1.8,2.73-3.19,3.49-1.39.76-3.03,1.03-4.91.83-1.94-.2-3.61-.81-5-1.8-1.4-.99-2.45-2.27-3.16-3.83-.71-1.57-1.07-3.3-1.07-5.24s.36-3.63,1.08-5.1c.72-1.47,1.78-2.63,3.17-3.46,1.4-.83,3.07-1.27,5.01-1.27,1.47,0,2.79.26,3.95.78,1.16.53,2.13,1.28,2.9,2.26.77.98,1.35,2.14,1.75,3.47s.59,2.81.59,4.41ZM376.14,877.65c0-.88-.1-1.77-.3-2.66-.2-.89-.52-1.71-.94-2.45-.43-.74-.97-1.34-1.62-1.78-.65-.45-1.42-.67-2.31-.69-1.16-.02-2.13.33-2.91,1.03-.78.7-1.35,1.59-1.72,2.68-.37,1.09-.55,2.2-.55,3.34,0,1.14.18,2.26.55,3.38.37,1.12.94,2.06,1.73,2.83.79.77,1.76,1.22,2.92,1.32.86.08,1.63-.07,2.28-.45.66-.38,1.2-.91,1.62-1.61.42-.7.73-1.48.94-2.34.21-.86.31-1.73.32-2.6Z"/>
    <path d="M387.67,879.57c0,3.7-.01,5.56-.02,9.26-1.54-.13-2.31-.2-3.85-.34.02-8.41.03-12.62.05-21.03,4.2,0,6.3.01,10.49.02,0,1.44,0,2.17-.01,3.61-2.66-.04-4-.06-6.66-.1,0,2.03,0,3.04-.01,5.07,2.56.09,3.84.14,6.4.23,0,1.44,0,2.16-.01,3.61-2.55-.12-3.82-.18-6.37-.31Z"/>
    <path d="M401.57,880.22c-.01,3.9-.02,5.85-.03,9.74-1.54-.12-2.31-.18-3.85-.3.03-8.87.04-13.31.07-22.19,4.2,0,6.3.01,10.49.02,0,1.51,0,2.27-.01,3.78-2.67-.03-4-.05-6.66-.09,0,2.13,0,3.2-.02,5.33,2.56.08,3.84.12,6.4.2,0,1.51,0,2.27-.01,3.78-2.55-.11-3.82-.16-6.37-.27Z"/>
    <path d="M415.59,890.96c-1.53-.1-2.29-.15-3.81-.26.03-9.28.05-13.93.08-23.21,1.53,0,2.29,0,3.82,0-.03,9.38-.05,14.08-.08,23.46Z"/>
    <path d="M433.99,887.09c.05,1.73.08,2.6.13,4.33-1.57.46-3,.65-4.3.58-1.48-.08-2.84-.41-4.09-.97-1.25-.56-2.35-1.38-3.3-2.44-.95-1.06-1.68-2.34-2.19-3.85-.51-1.51-.76-3.22-.75-5.15,0-1.93.24-3.65.71-5.17.47-1.52,1.14-2.81,2.02-3.87.88-1.06,1.94-1.86,3.18-2.39,1.24-.54,2.62-.81,4.15-.81,1.36,0,2.88.35,4.56,1.06-.13,1.68-.19,2.52-.32,4.19-1.24-.9-2.59-1.35-4.05-1.36-1.23-.01-2.32.32-3.27.98-.94.66-1.67,1.6-2.17,2.79-.51,1.2-.76,2.57-.77,4.14,0,1.62.26,3.09.78,4.41.53,1.32,1.28,2.36,2.25,3.13.97.76,2.12,1.18,3.43,1.24,1.24.06,2.58-.22,4-.85Z"/>
    <path d="M441,892.38c-1.53-.07-2.29-.11-3.82-.18.03-9.87.04-14.8.07-24.67,1.53,0,2.29,0,3.82,0-.03,9.94-.04,14.91-.07,24.84Z"/>
    <path d="M462.93,893.19c-1.67-.05-2.5-.07-4.16-.13-.65-2.34-.98-3.5-1.63-5.83-3.12-.08-4.69-.12-7.81-.22-.65,2.27-.98,3.4-1.63,5.65-1.58-.06-2.36-.1-3.94-.17,2.98-9.86,4.46-14.86,7.43-24.96,1.7,0,2.54,0,4.24,0,3,10.17,4.5,15.3,7.51,25.65ZM455.98,883.02c-.97-3.62-1.45-5.42-2.41-9.01-.05-.2-.18-.76-.37-1.67-.07.38-.15.77-.22,1.16-.07.39-.14.7-.2.93-.91,3.4-1.37,5.1-2.29,8.47,2.2.05,3.29.08,5.49.12Z"/>
    <path d="M476.65,889.28c0,1.69,0,2.54,0,4.24-4.48-.08-6.72-.13-11.2-.25.02-10.28.03-15.43.05-25.71,1.53,0,2.29,0,3.82,0-.01,8.64-.02,12.95-.03,21.59,2.95.06,4.43.08,7.38.13Z"/>
    <path d="M502.81,878.49c0,5.62,0,8.43,0,14.05-1.86.91-3.89,1.37-6.09,1.36-1.57,0-2.99-.28-4.26-.83-1.27-.55-2.36-1.38-3.27-2.49-.91-1.11-1.6-2.51-2.09-4.2-.48-1.69-.72-3.64-.72-5.84,0-2.18.27-4.1.82-5.77.55-1.67,1.31-3.06,2.3-4.16.99-1.1,2.14-1.92,3.44-2.45,1.31-.53,2.73-.79,4.27-.79,1.76,0,3.46.35,5.09,1.05-.1,1.85-.15,2.78-.25,4.63-1.6-.99-3.25-1.49-4.96-1.49-1.31,0-2.47.34-3.47,1.03-1.01.69-1.79,1.69-2.35,3.02-.56,1.33-.84,2.91-.84,4.76,0,1.29.14,2.5.43,3.64s.71,2.13,1.27,2.99c.56.86,1.23,1.52,2.01,2,.78.48,1.67.71,2.64.72.8,0,1.61-.18,2.41-.55,0-2.54,0-3.81,0-6.36-1.61,0-2.42,0-4.03,0,0-1.72,0-2.58,0-4.31,3.06,0,4.59,0,7.65,0Z"/>
    <path d="M524.29,893.48c-1.67.03-2.5.05-4.16.07-.66-2.35-.99-3.53-1.65-5.88-3.13.04-4.69.05-7.81.07-.65,2.37-.97,3.56-1.62,5.94-1.58.01-2.37.02-3.94.02,2.95-10.47,4.42-15.71,7.36-26.15,1.7,0,2.54,0,4.24,0,3.03,10.42,4.55,15.61,7.59,25.92ZM517.31,883.4c-.98-3.67-1.47-5.51-2.44-9.2-.06-.2-.18-.77-.37-1.72-.07.4-.15.79-.22,1.19s-.14.72-.19.96c-.9,3.52-1.36,5.28-2.26,8.8,2.2-.01,3.29-.02,5.49-.04Z"/>
    <path d="M548.23,892.8c-1.53.06-2.29.09-3.82.14-.01-6-.02-9-.03-15,.05-2.28.13-4.57.23-6.86-.04,0-.07,0-.11,0-.18,1-.37,1.89-.56,2.64-1.91,7.71-2.86,11.59-4.77,19.39-1.41.04-2.11.06-3.52.1-1.65-6.37-2.47-9.57-4.11-16-.51-2.01-.95-4.03-1.31-6.07-.04,0-.07,0-.11,0,.19,2.49.28,4.75.29,6.78.01,6.17.02,9.26.03,15.43-1.45.03-2.18.05-3.63.08-.01-10.35-.02-15.53-.04-25.88,2.41,0,3.62,0,6.03,0,1.38,5.4,2.07,8.1,3.45,13.46.54,2.16.95,4.25,1.23,6.28.16-1.08.32-2.02.47-2.81.15-.8.32-1.59.51-2.4,1.44-5.84,2.16-8.75,3.59-14.54,2.44,0,3.67,0,6.11,0,.02,10.1.04,15.16.06,25.26Z"/>
    <path d="M564.06,888.09c0,1.6,0,2.41.01,4.01-4.52.23-6.78.33-11.3.52-.03-10.03-.04-15.05-.07-25.08,4.47,0,6.71,0,11.18-.01,0,1.62,0,2.43.01,4.05-2.95.03-4.42.04-7.37.06,0,2.41,0,3.61.02,6.02,2.7-.05,4.05-.08,6.75-.13,0,1.61,0,2.41.01,4.02-2.7.08-4.05.11-6.75.18,0,2.66.01,4,.02,6.66,2.99-.11,4.49-.17,7.48-.3Z"/>
    <path d="M575.89,891.46c-.03-9.58-.05-14.37-.08-23.94,2.41,0,3.62,0,6.03,0,1.87,0,3.44.43,4.72,1.28,1.27.85,1.92,2.36,1.92,4.54,0,1.49-.3,2.66-.92,3.53-.62.86-1.54,1.47-2.77,1.83.61.06,1.19.23,1.74.51.55.28,1.02.66,1.42,1.14.4.48.7,1.04.92,1.67.21.64.32,1.38.33,2.21,0,.71-.09,1.4-.27,2.08-.18.68-.46,1.29-.82,1.85-.37.56-.81,1.04-1.32,1.45-.71.56-1.45.94-2.22,1.12-.77.18-1.75.3-2.95.38-2.29.15-3.43.22-5.72.35ZM579.66,877.11c.72-.02,1.09-.03,1.81-.05.93-.02,1.7-.27,2.31-.72.61-.45.92-1.2.91-2.25,0-1.08-.29-1.85-.86-2.29-.57-.44-1.32-.66-2.26-.65-.77,0-1.16.01-1.94.02,0,2.38.01,3.56.02,5.94ZM579.69,887.6c.74-.04,1.1-.06,1.84-.1,1.09-.06,2.01-.37,2.76-.93.75-.56,1.12-1.45,1.12-2.69,0-1.2-.35-2.05-1.04-2.57s-1.56-.76-2.59-.72c-.84.03-1.26.05-2.1.07,0,2.77.01,4.16.02,6.93Z"/>
    <path d="M610.07,888.97c-1.66.14-2.49.21-4.15.35-.66-1.93-.99-2.9-1.66-4.85-3.12.2-4.68.29-7.8.48-.64,2.09-.96,3.14-1.6,5.25-1.57.12-2.36.17-3.93.29,2.91-9.4,4.37-14.01,7.29-22.99,1.7,0,2.54,0,4.24,0,3.05,8.84,4.57,13.15,7.61,21.49ZM603.09,880.91c-.98-3.07-1.47-4.63-2.45-7.75-.06-.17-.18-.66-.38-1.46-.07.34-.15.68-.22,1.02-.07.34-.14.62-.19.83-.9,3.03-1.35,4.55-2.24,7.63,2.19-.1,3.29-.16,5.48-.27Z"/>
    <path d="M623.74,884.41c0,1.32,0,1.99,0,3.31-4.46.43-6.7.64-11.16,1.03-.02-8.52-.03-12.78-.05-21.29,1.53,0,2.29,0,3.82,0,.02,7.01.02,10.52.04,17.54,2.94-.23,4.41-.34,7.36-.58Z"/>
    <path d="M637.65,883.21v3.08c-4.46.48-6.69.71-11.16,1.16-.01-8.01-.02-12.01-.03-20.02,1.53,0,2.29,0,3.82,0,0,6.57,0,9.86.02,16.43,2.94-.25,4.41-.38,7.35-.65Z"/>
  </g>
</svg>

